<svg width="112" height="20" viewBox="0 0 112 20" fill="none" xmlns="http://www.w3.org/2000/svg">
<rect width="112" height="20" rx="2" fill="white"/>
<rect width="112" height="20" rx="2" fill="#05482F"/>
<rect width="112" height="20" rx="2" fill="url(#paint0_linear_931_156)"/>
<rect width="112" height="20" rx="2" fill="url(#paint1_radial_931_156)" fill-opacity="0.63"/>
<g clip-path="url(#clip0_931_156)">
<path d="M17 10C17 6.68629 14.3137 4 11 4C7.68629 4 5 6.68629 5 10C5 13.3137 7.68629 16 11 16C14.3137 16 17 13.3137 17 10Z" fill="url(#paint2_linear_931_156)"/>
<path d="M16.28 9.99997C16.28 7.08391 13.916 4.71997 11 4.71997C8.08391 4.71997 5.71997 7.08391 5.71997 9.99997C5.71997 12.916 8.08391 15.28 11 15.28C13.916 15.28 16.28 12.916 16.28 9.99997Z" stroke="#211D1D" stroke-opacity="0.6" stroke-width="1.68"/>
<path d="M16.28 9.99997C16.28 7.08391 13.916 4.71997 11 4.71997C8.08391 4.71997 5.71997 7.08391 5.71997 9.99997C5.71997 12.916 8.08391 15.28 11 15.28C13.916 15.28 16.28 12.916 16.28 9.99997Z" stroke="url(#paint3_radial_931_156)" stroke-opacity="0.2" stroke-width="1.68"/>
</g>
<g style="mix-blend-mode:color-dodge">
<path d="M21.639 13V6.7H24.555C24.969 6.7 25.329 6.781 25.635 6.943C25.941 7.099 26.181 7.318 26.355 7.6C26.529 7.882 26.616 8.209 26.616 8.581C26.616 8.953 26.529 9.28 26.355 9.562C26.181 9.844 25.938 10.066 25.626 10.228C25.32 10.384 24.963 10.462 24.555 10.462H22.584V13H21.639ZM22.584 9.661H24.456C24.828 9.661 25.122 9.565 25.338 9.373C25.56 9.175 25.671 8.914 25.671 8.59C25.671 8.266 25.56 8.008 25.338 7.816C25.122 7.624 24.828 7.528 24.456 7.528H22.584V9.661ZM29.1582 13.09C28.7142 13.09 28.3092 12.985 27.9432 12.775C27.5832 12.565 27.2982 12.28 27.0882 11.92C26.8782 11.56 26.7732 11.158 26.7732 10.714C26.7732 10.27 26.8782 9.868 27.0882 9.508C27.2982 9.148 27.5832 8.863 27.9432 8.653C28.3092 8.437 28.7142 8.329 29.1582 8.329C29.6082 8.329 30.0132 8.437 30.3732 8.653C30.7332 8.863 31.0182 9.148 31.2282 9.508C31.4382 9.868 31.5432 10.27 31.5432 10.714C31.5432 11.158 31.4382 11.56 31.2282 11.92C31.0182 12.28 30.7332 12.565 30.3732 12.775C30.0132 12.985 29.6082 13.09 29.1582 13.09ZM29.1582 12.298C29.4402 12.298 29.6952 12.229 29.9232 12.091C30.1512 11.947 30.3312 11.755 30.4632 11.515C30.5952 11.275 30.6612 11.005 30.6612 10.705C30.6612 10.411 30.5922 10.147 30.4542 9.913C30.3222 9.673 30.1422 9.481 29.9142 9.337C29.6922 9.193 29.4402 9.121 29.1582 9.121C28.8762 9.121 28.6212 9.193 28.3932 9.337C28.1712 9.481 27.9912 9.673 27.8532 9.913C27.7212 10.147 27.6552 10.411 27.6552 10.705C27.6552 11.005 27.7212 11.275 27.8532 11.515C27.9852 11.755 28.1652 11.947 28.3932 12.091C28.6212 12.229 28.8762 12.298 29.1582 12.298ZM33.1614 13L31.8834 8.419H32.7564L33.6474 11.785L34.6914 8.419H35.4654L36.5094 11.785L37.4004 8.419H38.2464L36.9594 13H36.0954L35.0694 9.643L34.0344 13H33.1614ZM40.9975 13.081C40.5475 13.081 40.1395 12.976 39.7735 12.766C39.4135 12.556 39.1255 12.271 38.9095 11.911C38.6995 11.551 38.5945 11.149 38.5945 10.705C38.5945 10.267 38.6965 9.871 38.9005 9.517C39.1045 9.157 39.3805 8.872 39.7285 8.662C40.0765 8.446 40.4635 8.338 40.8895 8.338C41.3155 8.338 41.6935 8.446 42.0235 8.662C42.3535 8.872 42.6145 9.16 42.8065 9.526C43.0045 9.886 43.1035 10.294 43.1035 10.75V11.002H39.4945C39.5425 11.254 39.6355 11.479 39.7735 11.677C39.9175 11.875 40.0975 12.031 40.3135 12.145C40.5355 12.259 40.7755 12.316 41.0335 12.316C41.2555 12.316 41.4685 12.283 41.6725 12.217C41.8825 12.145 42.0565 12.043 42.1945 11.911L42.7705 12.478C42.5005 12.682 42.2215 12.835 41.9335 12.937C41.6515 13.033 41.3395 13.081 40.9975 13.081ZM39.5035 10.327H42.2125C42.1765 10.087 42.0925 9.877 41.9605 9.697C41.8345 9.511 41.6755 9.367 41.4835 9.265C41.2975 9.157 41.0935 9.103 40.8715 9.103C40.6435 9.103 40.4335 9.154 40.2415 9.256C40.0495 9.358 39.8875 9.502 39.7555 9.688C39.6295 9.868 39.5455 10.081 39.5035 10.327ZM43.9607 13V8.419H44.8607V9.004C45.0047 8.788 45.1817 8.62 45.3917 8.5C45.6077 8.374 45.8507 8.311 46.1207 8.311C46.3067 8.317 46.4597 8.344 46.5797 8.392V9.202C46.4957 9.166 46.4087 9.142 46.3187 9.13C46.2287 9.112 46.1387 9.103 46.0487 9.103C45.7847 9.103 45.5507 9.175 45.3467 9.319C45.1427 9.457 44.9807 9.661 44.8607 9.931V13H43.9607ZM49.2329 13.081C48.7829 13.081 48.3749 12.976 48.0089 12.766C47.6489 12.556 47.3609 12.271 47.1449 11.911C46.9349 11.551 46.8299 11.149 46.8299 10.705C46.8299 10.267 46.9319 9.871 47.1359 9.517C47.3399 9.157 47.6159 8.872 47.9639 8.662C48.3119 8.446 48.6989 8.338 49.1249 8.338C49.5509 8.338 49.9289 8.446 50.2589 8.662C50.5889 8.872 50.8499 9.16 51.0419 9.526C51.2399 9.886 51.3389 10.294 51.3389 10.75V11.002H47.7299C47.7779 11.254 47.8709 11.479 48.0089 11.677C48.1529 11.875 48.3329 12.031 48.5489 12.145C48.7709 12.259 49.0109 12.316 49.2689 12.316C49.4909 12.316 49.7039 12.283 49.9079 12.217C50.1179 12.145 50.2919 12.043 50.4299 11.911L51.0059 12.478C50.7359 12.682 50.4569 12.835 50.1689 12.937C49.8869 13.033 49.5749 13.081 49.2329 13.081ZM47.7389 10.327H50.4479C50.4119 10.087 50.3279 9.877 50.1959 9.697C50.0699 9.511 49.9109 9.367 49.7189 9.265C49.5329 9.157 49.3289 9.103 49.1069 9.103C48.8789 9.103 48.6689 9.154 48.4769 9.256C48.2849 9.358 48.1229 9.502 47.9909 9.688C47.8649 9.868 47.7809 10.081 47.7389 10.327ZM54.3196 13.072C53.8936 13.072 53.5036 12.967 53.1496 12.757C52.7956 12.547 52.5166 12.265 52.3126 11.911C52.1086 11.551 52.0066 11.149 52.0066 10.705C52.0066 10.261 52.1086 9.862 52.3126 9.508C52.5226 9.154 52.8046 8.872 53.1586 8.662C53.5126 8.452 53.9056 8.347 54.3376 8.347C54.5896 8.347 54.8326 8.386 55.0666 8.464C55.3006 8.542 55.5166 8.656 55.7146 8.806V6.7L56.6146 6.529V13H55.7236V12.559C55.3336 12.901 54.8656 13.072 54.3196 13.072ZM54.4366 12.289C54.7006 12.289 54.9406 12.241 55.1566 12.145C55.3786 12.049 55.5646 11.911 55.7146 11.731V9.67C55.5646 9.502 55.3786 9.37 55.1566 9.274C54.9406 9.172 54.7006 9.121 54.4366 9.121C54.1486 9.121 53.8876 9.19 53.6536 9.328C53.4196 9.466 53.2336 9.655 53.0956 9.895C52.9576 10.129 52.8886 10.396 52.8886 10.696C52.8886 10.996 52.9576 11.266 53.0956 11.506C53.2336 11.746 53.4196 11.938 53.6536 12.082C53.8876 12.22 54.1486 12.289 54.4366 12.289ZM59.5613 13V6.7L60.4613 6.529V8.851C60.8453 8.515 61.3103 8.347 61.8563 8.347C62.2883 8.347 62.6783 8.452 63.0263 8.662C63.3803 8.872 63.6593 9.154 63.8633 9.508C64.0673 9.862 64.1693 10.261 64.1693 10.705C64.1693 11.149 64.0643 11.551 63.8543 11.911C63.6503 12.265 63.3713 12.547 63.0173 12.757C62.6693 12.967 62.2763 13.072 61.8383 13.072C61.5863 13.072 61.3403 13.033 61.1003 12.955C60.8663 12.871 60.6503 12.754 60.4523 12.604V13H59.5613ZM61.7393 12.289C62.0333 12.289 62.2943 12.22 62.5223 12.082C62.7563 11.944 62.9423 11.758 63.0803 11.524C63.2183 11.284 63.2873 11.014 63.2873 10.714C63.2873 10.414 63.2183 10.144 63.0803 9.904C62.9423 9.664 62.7563 9.475 62.5223 9.337C62.2943 9.199 62.0333 9.13 61.7393 9.13C61.4813 9.13 61.2413 9.178 61.0193 9.274C60.7973 9.37 60.6113 9.505 60.4613 9.679V11.749C60.6113 11.917 60.7973 12.049 61.0193 12.145C61.2473 12.241 61.4873 12.289 61.7393 12.289ZM65.2022 14.935C65.1062 14.935 65.0162 14.929 64.9322 14.917C64.8482 14.911 64.7792 14.899 64.7252 14.881V14.089C64.8332 14.113 64.9652 14.125 65.1212 14.125C65.5412 14.125 65.8442 13.9 66.0302 13.45L66.2282 13.009L64.3922 8.419H65.3912L66.7232 11.911L68.1992 8.419H69.1712L66.9572 13.567C66.8132 13.891 66.6602 14.152 66.4982 14.35C66.3362 14.554 66.1502 14.701 65.9402 14.791C65.7302 14.887 65.4842 14.935 65.2022 14.935ZM72.7361 13L71.3591 6.7H72.3311L73.3121 11.515L74.7341 6.7H75.6341L77.0561 11.506L78.0461 6.7H78.9731L77.5961 13H76.6241L75.1751 8.05L73.7171 13H72.7361ZM81.5766 13.081C81.1266 13.081 80.7186 12.976 80.3526 12.766C79.9926 12.556 79.7046 12.271 79.4886 11.911C79.2786 11.551 79.1736 11.149 79.1736 10.705C79.1736 10.267 79.2756 9.871 79.4796 9.517C79.6836 9.157 79.9596 8.872 80.3076 8.662C80.6556 8.446 81.0426 8.338 81.4686 8.338C81.8946 8.338 82.2726 8.446 82.6026 8.662C82.9326 8.872 83.1936 9.16 83.3856 9.526C83.5836 9.886 83.6826 10.294 83.6826 10.75V11.002H80.0736C80.1216 11.254 80.2146 11.479 80.3526 11.677C80.4966 11.875 80.6766 12.031 80.8926 12.145C81.1146 12.259 81.3546 12.316 81.6126 12.316C81.8346 12.316 82.0476 12.283 82.2516 12.217C82.4616 12.145 82.6356 12.043 82.7736 11.911L83.3496 12.478C83.0796 12.682 82.8006 12.835 82.5126 12.937C82.2306 13.033 81.9186 13.081 81.5766 13.081ZM80.0826 10.327H82.7916C82.7556 10.087 82.6716 9.877 82.5396 9.697C82.4136 9.511 82.2546 9.367 82.0626 9.265C81.8766 9.157 81.6726 9.103 81.4506 9.103C81.2226 9.103 81.0126 9.154 80.8206 9.256C80.6286 9.358 80.4666 9.502 80.3346 9.688C80.2086 9.868 80.1246 10.081 80.0826 10.327ZM84.5398 13V6.7L85.4398 6.529V8.851C85.8238 8.515 86.2888 8.347 86.8348 8.347C87.2668 8.347 87.6568 8.452 88.0048 8.662C88.3588 8.872 88.6378 9.154 88.8418 9.508C89.0458 9.862 89.1478 10.261 89.1478 10.705C89.1478 11.149 89.0428 11.551 88.8328 11.911C88.6288 12.265 88.3498 12.547 87.9958 12.757C87.6478 12.967 87.2548 13.072 86.8168 13.072C86.5648 13.072 86.3188 13.033 86.0788 12.955C85.8448 12.871 85.6288 12.754 85.4308 12.604V13H84.5398ZM86.7178 12.289C87.0118 12.289 87.2728 12.22 87.5008 12.082C87.7348 11.944 87.9208 11.758 88.0588 11.524C88.1968 11.284 88.2658 11.014 88.2658 10.714C88.2658 10.414 88.1968 10.144 88.0588 9.904C87.9208 9.664 87.7348 9.475 87.5008 9.337C87.2728 9.199 87.0118 9.13 86.7178 9.13C86.4598 9.13 86.2198 9.178 85.9978 9.274C85.7758 9.37 85.5898 9.505 85.4398 9.679V11.749C85.5898 11.917 85.7758 12.049 85.9978 12.145C86.2258 12.241 86.4658 12.289 86.7178 12.289ZM93.1386 13.099C92.6766 13.099 92.2446 13.015 91.8426 12.847C91.4466 12.679 91.0986 12.448 90.7986 12.154C90.4986 11.854 90.2646 11.509 90.0966 11.119C89.9286 10.723 89.8446 10.3 89.8446 9.85C89.8446 9.4 89.9256 8.98 90.0876 8.59C90.2556 8.194 90.4896 7.849 90.7896 7.555C91.0896 7.255 91.4376 7.021 91.8336 6.853C92.2296 6.685 92.6586 6.601 93.1206 6.601C93.6186 6.601 94.0896 6.697 94.5336 6.889C94.9776 7.081 95.3526 7.348 95.6586 7.69L95.0106 8.32C94.7826 8.05 94.5006 7.843 94.1646 7.699C93.8346 7.549 93.4866 7.474 93.1206 7.474C92.7906 7.474 92.4846 7.534 92.2026 7.654C91.9266 7.774 91.6836 7.942 91.4736 8.158C91.2636 8.368 91.0986 8.617 90.9786 8.905C90.8646 9.193 90.8076 9.508 90.8076 9.85C90.8076 10.186 90.8646 10.501 90.9786 10.795C91.0986 11.083 91.2636 11.335 91.4736 11.551C91.6896 11.767 91.9386 11.935 92.2206 12.055C92.5026 12.175 92.8086 12.235 93.1386 12.235C93.5106 12.235 93.8466 12.157 94.1466 12.001C94.4526 11.845 94.7016 11.632 94.8936 11.362C95.0856 11.086 95.2026 10.777 95.2446 10.435H93.1476V9.607H96.2346V9.931C96.2346 10.381 96.1566 10.798 96.0006 11.182C95.8446 11.566 95.6256 11.902 95.3436 12.19C95.0676 12.478 94.7406 12.703 94.3626 12.865C93.9846 13.021 93.5766 13.099 93.1386 13.099ZM99.3129 13.081C98.8629 13.081 98.4549 12.976 98.0889 12.766C97.7289 12.556 97.4409 12.271 97.2249 11.911C97.0149 11.551 96.9099 11.149 96.9099 10.705C96.9099 10.267 97.0119 9.871 97.2159 9.517C97.4199 9.157 97.6959 8.872 98.0439 8.662C98.3919 8.446 98.7789 8.338 99.2049 8.338C99.6309 8.338 100.009 8.446 100.339 8.662C100.669 8.872 100.93 9.16 101.122 9.526C101.32 9.886 101.419 10.294 101.419 10.75V11.002H97.8099C97.8579 11.254 97.9509 11.479 98.0889 11.677C98.2329 11.875 98.4129 12.031 98.6289 12.145C98.8509 12.259 99.0909 12.316 99.3489 12.316C99.5709 12.316 99.7839 12.283 99.9879 12.217C100.198 12.145 100.372 12.043 100.51 11.911L101.086 12.478C100.816 12.682 100.537 12.835 100.249 12.937C99.9669 13.033 99.6549 13.081 99.3129 13.081ZM97.8189 10.327H100.528C100.492 10.087 100.408 9.877 100.276 9.697C100.15 9.511 99.9909 9.367 99.7989 9.265C99.6129 9.157 99.4089 9.103 99.1869 9.103C98.9589 9.103 98.7489 9.154 98.5569 9.256C98.3649 9.358 98.2029 9.502 98.0709 9.688C97.9449 9.868 97.8609 10.081 97.8189 10.327ZM102.276 13V8.419H103.176V8.887C103.53 8.515 103.989 8.329 104.553 8.329C104.907 8.329 105.216 8.404 105.48 8.554C105.75 8.704 105.96 8.914 106.11 9.184C106.266 9.454 106.344 9.766 106.344 10.12V13H105.444V10.273C105.444 9.913 105.342 9.631 105.138 9.427C104.94 9.217 104.661 9.112 104.301 9.112C104.061 9.112 103.845 9.163 103.653 9.265C103.461 9.367 103.302 9.514 103.176 9.706V13H102.276Z" fill="#BABABA"/>
</g>
<defs>
<linearGradient id="paint0_linear_931_156" x1="70.2411" y1="26.7082" x2="66.5693" y2="7.48459" gradientUnits="userSpaceOnUse">
<stop stop-color="#0A2641"/>
<stop offset="0.608898" stop-color="#0A2641" stop-opacity="0.22"/>
<stop offset="1" stop-color="#0A2641" stop-opacity="0"/>
</linearGradient>
<radialGradient id="paint1_radial_931_156" cx="0" cy="0" r="1" gradientUnits="userSpaceOnUse" gradientTransform="translate(10.3513 28.2229) rotate(-9.40472) scale(65.6912 32.4106)">
<stop stop-color="#103B66"/>
<stop offset="0.739583" stop-color="#0A2641" stop-opacity="0.22"/>
<stop offset="1" stop-color="#0A2641" stop-opacity="0"/>
</radialGradient>
<linearGradient id="paint2_linear_931_156" x1="7.7" y1="4.72" x2="13.7" y2="16.3" gradientUnits="userSpaceOnUse">
<stop stop-color="#506AF9"/>
<stop offset="1" stop-color="#02FD1B"/>
</linearGradient>
<radialGradient id="paint3_radial_931_156" cx="0" cy="0" r="1" gradientUnits="userSpaceOnUse" gradientTransform="translate(11 9.99997) rotate(90) scale(6)">
<stop offset="0.901042" stop-color="white" stop-opacity="0"/>
<stop offset="1" stop-color="white"/>
</radialGradient>
<clipPath id="clip0_931_156">
<rect width="12" height="12" fill="white" transform="translate(5 4)"/>
</clipPath>
</defs>
</svg>
